<?xml version="1.0" standalone="no"?>
<!DOCTYPE svg PUBLIC "-//W3C//DTD SVG 20010904//EN"
 "http://www.w3.org/TR/2001/REC-SVG-20010904/DTD/svg10.dtd">
<svg version="1.0" xmlns="http://www.w3.org/2000/svg"
 width="143.000000pt" height="145.000000pt" viewBox="0 0 143.000000 145.000000"
 preserveAspectRatio="xMidYMid meet">
<metadata>
Sofia Khizhnyal Frontend Developer 
</metadata>
<g transform="translate(0.000000,145.000000) scale(0.100000,-0.100000)"
fill="#3a00ad" stroke="none">
<path d="M574 1401 c-143 -41 -291 -164 -352 -293 -17 -35 -65 -182 -107 -328
-70 -242 -77 -271 -73 -335 5 -85 33 -147 92 -206 63 -65 134 -93 232 -94 45
0 88 -6 95 -12 33 -26 98 -51 139 -55 l45 -3 -1 37 c-2 46 -17 66 -71 89 -50
21 -63 55 -63 167 0 45 -6 84 -15 102 -13 25 -13 32 0 64 9 20 15 67 15 108 0
123 15 153 88 173 28 8 54 57 50 93 -3 25 -6 27 -43 24 -63 -5 -142 -48 -172
-94 -23 -34 -27 -53 -32 -145 -5 -95 -8 -107 -28 -121 -19 -12 -23 -23 -23
-71 0 -49 3 -58 22 -66 21 -9 23 -18 26 -87 l3 -78 -43 0 c-104 1 -198 93
-198 195 0 36 148 535 176 592 56 115 191 212 327 235 179 30 383 -74 460
-233 15 -30 61 -172 103 -317 85 -295 87 -317 33 -392 -35 -49 -96 -79 -157
-80 l-43 0 3 78 c3 69 5 78 26 87 19 8 22 17 22 66 0 48 -4 59 -22 71 -21 14
-24 26 -28 114 -4 73 -11 110 -26 139 -28 55 -98 97 -169 103 -51 4 -55 3 -55
-17 0 -39 27 -89 52 -96 73 -20 88 -50 88 -173 0 -41 6 -88 14 -107 13 -31 13
-39 0 -70 -7 -19 -14 -65 -14 -102 0 -107 -13 -141 -63 -162 -54 -23 -69 -43
-71 -89 l-1 -37 40 3 c48 4 90 18 130 46 23 16 45 20 110 21 67 0 90 5 137 28
116 57 180 150 186 272 4 64 -3 96 -72 335 -42 146 -92 297 -111 336 -66 136
-229 260 -383 293 -77 16 -207 12 -278 -8z"/>
</g>
</svg>
